<?xml version="1.0" encoding="UTF-8" standalone="no"?>
<!-- Created with Inkscape (http://www.inkscape.org/) -->

<svg
   width="154mm"
   height="154mm"
   viewBox="0 0 154 154"
   version="1.1"
   id="svg1"
   sodipodi:docname="Security Voyage Logo - Square Favicon - White.svg"
   inkscape:export-filename="Security Voyage Logo - Square Favicon - White.png"
   inkscape:export-xdpi="84.446754"
   inkscape:export-ydpi="84.446754"
   inkscape:version="1.4.3 (0d15f75, 2025-12-25)"
   xmlns:inkscape="http://www.inkscape.org/namespaces/inkscape"
   xmlns:sodipodi="http://sodipodi.sourceforge.net/DTD/sodipodi-0.dtd"
   xmlns="http://www.w3.org/2000/svg"
   xmlns:svg="http://www.w3.org/2000/svg">
  <sodipodi:namedview
     id="namedview1"
     pagecolor="#ffffff"
     bordercolor="#000000"
     borderopacity="0.25"
     inkscape:showpageshadow="2"
     inkscape:pageopacity="0.0"
     inkscape:pagecheckerboard="true"
     inkscape:deskcolor="#d1d1d1"
     inkscape:document-units="mm"
     inkscape:zoom="1.4177434"
     inkscape:cx="307.88365"
     inkscape:cy="353.37849"
     inkscape:window-width="1718"
     inkscape:window-height="1360"
     inkscape:window-x="1713"
     inkscape:window-y="0"
     inkscape:window-maximized="0"
     inkscape:current-layer="svg1" />
  <defs
     id="defs1" />
  <g
     id="layer1"
     transform="matrix(0.83734338,0,0,0.83734338,12.52456,12.52456)"
     inkscape:export-filename="layer1.png"
     inkscape:export-xdpi="84.446754"
     inkscape:export-ydpi="84.446754">
    <g
       id="g1"
       transform="translate(-34.576557,-65.595064)">
      <path
         fill="#fdfdfd"
         opacity="1"
         stroke="none"
         d="m 64.512448,160.78828 c 0.01217,-0.2579 0.02436,-0.51581 0.03934,-0.83311 4.169093,-0.89612 8.370959,-1.79926 12.63348,-2.71545 0.211759,0.76205 0.422712,1.53204 0.639536,2.29961 1.134295,4.01555 3.594427,5.99286 6.969128,6.59987 1.968208,0.35403 3.910528,0.24224 5.845115,-0.29003 2.921048,-0.80365 4.581158,-3.87811 3.816658,-7.08308 -0.38576,-1.61716 -1.330898,-2.64468 -2.588162,-3.14886 -2.274127,-0.912 -4.583549,-1.6981 -6.883844,-2.51389 -4.145913,-1.47036 -8.445985,-2.40794 -12.227671,-5.13113 -2.283282,-1.6442 -4.236262,-3.70837 -5.31161,-6.70046 -1.732208,-4.81973 -1.505969,-9.65103 0.237709,-14.39465 1.315302,-3.57825 3.709571,-5.92593 6.445896,-7.83539 2.432955,-1.69775 5.119141,-2.44831 7.86325,-2.91967 3.100502,-0.53258 6.209746,-0.51565 9.303289,0.0986 4.576843,0.90882 8.647403,3.07914 11.867178,7.20261 2.00992,2.57402 3.55589,6.55928 3.99797,10.01742 -4.05891,1.02417 -8.123085,2.04967 -12.237135,3.08775 -0.23419,-0.78642 -0.45766,-1.52734 -0.67563,-2.27057 -0.76525,-2.60946 -2.273959,-4.26296 -4.460834,-5.06996 -2.614282,-0.96473 -5.225629,-1.0158 -7.822217,0.0487 -1.905323,0.78112 -2.890558,2.4375 -2.921302,4.76219 -0.0213,1.61137 0.699366,2.69191 1.749439,3.51827 1.757332,1.38294 3.771379,1.96056 5.761986,2.60448 3.356762,1.08582 6.739478,2.06922 10.061168,3.29253 1.66734,0.61407 3.28995,1.51998 4.817355,2.5432 3.06239,2.05148 5.02322,5.25573 5.73908,9.35693 1.512,8.66217 -1.30217,17.14466 -8.506135,21.17066 -2.53371,1.41595 -5.18658,2.14909 -7.924369,2.42117 -2.187658,0.21741 -4.406053,0.34561 -6.591052,0.16591 -4.029634,-0.33144 -7.888559,-1.47745 -11.390823,-4.09261 -3.979537,-2.97156 -6.491684,-7.1965 -7.764353,-12.55889 -0.125418,-0.52846 -0.239476,-1.06082 -0.413852,-1.60614 -0.05504,-0.0148 -0.06859,-0.026 -0.06859,-0.026 z"
         id="path2"
         style="stroke-width:0.151188" />
      <path
         fill="#fdfdfd"
         opacity="1"
         stroke="none"
         d="m 35.776445,85.298729 c 7.383534,0.0028 14.701744,0.0028 22.109479,0.0028 0,4.11312 0,8.200604 0,12.363678 -3.720755,0 -7.429854,0 -11.203126,0 0,30.022783 0,59.970963 0,90.004613 3.701274,0 7.422936,0 11.166306,0 0,4.12805 0,8.17044 0,12.29329 -7.696083,0 -15.345211,0 -23.067984,0 0,-3.98235 -0.01727,-7.92264 0.0057,-11.86259 0.01703,-2.91976 0.103705,-5.83888 0.127041,-8.75866 0.01946,-2.43437 -0.01442,-4.86929 -0.01314,-7.30396 0.0016,-3.13425 0.02737,-6.26856 0.01792,-9.40274 -0.0051,-1.66587 -0.06394,-3.33149 -0.09569,-4.9973 -0.02451,-1.2858 -0.07597,-2.5723 -0.06022,-3.85751 0.03436,-2.80351 0.132594,-5.60611 0.150629,-8.4096 0.01629,-2.53242 -0.05673,-5.06548 -0.0593,-7.59831 -0.004,-3.96173 0.0268,-7.92351 0.02569,-11.88527 -5.73e-4,-2.02327 -0.05915,-4.04656 -0.05548,-6.06975 0.0096,-5.31953 0.0381,-10.63902 0.06093,-15.95851 0.01198,-2.79293 0.04806,-5.585946 0.03601,-8.378702 -0.01075,-2.491823 -0.07403,-4.983301 -0.111076,-7.474993 -0.0081,-0.543724 4e-6,-1.087773 -0.005,-1.631598 -0.0098,-1.07318 -0.01139,-1.07316 0.971265,-1.074872 M 34.633993,195.28055 c -0.0058,0.77116 -0.01594,1.5423 -0.01652,2.31348 -0.0016,1.89575 4.11e-4,1.89575 0.219928,2.19826 0,-3.55965 0,-7.11249 0,-10.86841 -0.115383,0.26807 -0.171735,0.33826 -0.172294,0.40913 -0.01509,1.9271 -0.02448,3.85431 -0.03111,5.94754 m 0.263513,-17.89674 c -0.03803,-0.0737 -0.07607,-0.1473 -0.114092,-0.22099 -0.03612,0.0908 -0.07224,0.18167 -0.108358,0.27248 0.06869,0.0306 0.137373,0.0612 0.22245,-0.0515 z"
         id="path3"
         style="stroke-width:0.151188" />
      <path
         fill="#fdfdfd"
         opacity="1"
         stroke="none"
         d="m 188.53538,95.712115 c -0.002,34.810815 -0.002,69.539435 -0.002,104.348865 -7.66088,0 -15.26182,0 -22.8865,0 -0.0402,-0.2216 -0.0815,-0.34639 -0.0827,-0.47176 -0.0356,-3.77831 -0.0601,-7.55682 -0.10704,-11.3349 -0.007,-0.56269 0.16136,-0.69173 0.60651,-0.6821 2.77042,0.0599 5.54129,0.0877 8.31207,0.12072 0.79898,0.01 1.59813,0.002 2.44268,0.002 0,-30.04405 0,-60.00932 0,-89.91808 -3.68406,0 -7.41613,0 -11.14479,0 -0.0536,-0.216196 -0.0998,-0.317359 -0.10078,-0.419163 -0.0359,-3.806558 -0.0681,-7.613167 -0.0994,-11.419787 -0.004,-0.45432 0.0675,-0.820208 0.55709,-0.808488 2.58766,0.06196 5.17538,0.144925 7.76332,0.160349 4.65876,0.02776 9.31765,0.01274 13.97651,0.01555 0.22486,1.43e-4 0.44971,2.2e-5 0.7655,2.2e-5 0,3.492518 0,6.90882 -0.002,10.407311 z"
         id="path4"
         style="stroke-width:0.151188" />
      <path
         fill="#fdfdfd"
         opacity="1"
         stroke="none"
         d="m 111.58788,120.55578 c -0.31531,-1.04096 -0.61346,-2.02023 -0.94218,-3.09994 0.74398,0 1.35162,0.005 1.95919,-8.1e-4 3.50696,-0.0322 7.01391,-0.0795 10.52084,-0.0758 0.27153,3.3e-4 0.70784,0.2813 0.78838,0.55201 0.72051,2.42167 1.36975,4.87383 2.05664,7.31019 0.98009,3.47636 1.97121,6.94822 2.9631,10.41973 1.3603,4.76091 2.73,9.51793 4.08742,14.28 0.80478,2.82333 1.59302,5.65348 2.39159,8.47938 0.0542,0.19189 0.13254,0.37394 0.26425,0.74024 0.36117,-1.30235 0.6694,-2.43082 0.98679,-3.55551 2.15779,-7.64611 4.29872,-15.29922 6.4835,-22.93416 1.37931,-4.82018 2.83636,-9.60813 4.2267,-14.42382 0.174,-0.60269 0.40675,-0.78613 0.91579,-0.78632 3.84623,-0.001 7.69246,-0.0372 11.53873,-0.0536 0.1956,-8.1e-4 0.39143,0.0778 0.70248,0.14393 -6.2096,20.09868 -12.3911,40.10639 -18.58011,60.1384 -2.15824,0 -4.23808,-0.0154 -6.31762,0.008 -0.76154,0.009 -1.52309,0.169 -2.28332,0.15533 -1.2694,-0.0228 -2.53946,-0.10474 -3.80452,-0.23077 -0.17605,-0.0175 -0.39156,-0.39655 -0.47612,-0.66047 -0.65887,-2.05584 -1.28506,-4.12681 -1.93125,-6.18861 -0.97022,-3.09565 -1.96109,-6.182 -2.92074,-9.28234 -1.96342,-6.3434 -3.89939,-12.69909 -5.87167,-19.03843 -1.03363,-3.32231 -2.14995,-6.60752 -3.17513,-9.93347 -1.21871,-3.95374 -2.37962,-7.93326 -3.58274,-11.96328 z"
         id="path5"
         style="stroke-width:0.151188" />
    </g>
  </g>
</svg>
